<mxfile host="app.diagrams.net" modified="2023-10-04T07:50:15.572Z" agent="Mozilla/5.0 (Macintosh; Intel Mac OS X 10_15_7) AppleWebKit/537.36 (KHTML, like Gecko) Chrome/117.0.0.0 Safari/537.36" version="22.0.2" etag="Ao6Jnko4bum9Dj1uxPnC" type="github">
  <diagram name="Page-1" id="MhJapLPcQqQs4VZ_46v_">
    <mxGraphModel>
      <root>
        <mxCell id="0" />
        <mxCell id="1" parent="0" />
      </root>
    </mxGraphModel>
  </diagram>
</mxfile>
